<mxfile host="app.diagrams.net" modified="2023-11-22T05:44:58.738Z" agent="Mozilla/5.0 (Windows NT 10.0; Win64; x64) AppleWebKit/537.36 (KHTML, like Gecko) Chrome/118.0.0.0 Safari/537.36" etag="atbTFZHARQlpst8AuzHw" version="22.1.3" type="github">
  <diagram name="Page-1" id="74e2e168-ea6b-b213-b513-2b3c1d86103e">
    <mxGraphModel dx="1434" dy="758" grid="1" gridSize="10" guides="1" tooltips="1" connect="1" arrows="1" fold="1" page="1" pageScale="1" pageWidth="1100" pageHeight="850" background="none" math="0" shadow="0">
      <root>
        <mxCell id="0" />
        <mxCell id="1" parent="0" />
        <mxCell id="77e6c97f196da883-1" value="Pool" style="swimlane;html=1;childLayout=stackLayout;startSize=20;rounded=0;shadow=0;labelBackgroundColor=none;strokeWidth=1;fontFamily=Verdana;fontSize=8;align=center;" parent="1" vertex="1">
          <mxGeometry x="70" y="43" width="960" height="750" as="geometry" />
        </mxCell>
        <mxCell id="77e6c97f196da883-2" value="商品" style="swimlane;html=1;startSize=20;" parent="77e6c97f196da883-1" vertex="1">
          <mxGeometry y="20" width="160" height="730" as="geometry" />
        </mxCell>
        <mxCell id="Wx2LwBdW0A8jemOkCZMF-20" value="" style="edgeStyle=orthogonalEdgeStyle;rounded=0;orthogonalLoop=1;jettySize=auto;html=1;" edge="1" parent="77e6c97f196da883-2" source="77e6c97f196da883-8" target="Wx2LwBdW0A8jemOkCZMF-19">
          <mxGeometry relative="1" as="geometry" />
        </mxCell>
        <mxCell id="77e6c97f196da883-8" value="上架" style="rounded=1;whiteSpace=wrap;html=1;shadow=0;labelBackgroundColor=none;strokeWidth=1;fontFamily=Verdana;fontSize=8;align=center;" parent="77e6c97f196da883-2" vertex="1">
          <mxGeometry x="20" y="65" width="100" height="60" as="geometry" />
        </mxCell>
        <mxCell id="Wx2LwBdW0A8jemOkCZMF-22" value="" style="edgeStyle=orthogonalEdgeStyle;rounded=0;orthogonalLoop=1;jettySize=auto;html=1;" edge="1" parent="77e6c97f196da883-2" source="Wx2LwBdW0A8jemOkCZMF-19" target="Wx2LwBdW0A8jemOkCZMF-21">
          <mxGeometry relative="1" as="geometry" />
        </mxCell>
        <mxCell id="Wx2LwBdW0A8jemOkCZMF-19" value="判断是否首次上架" style="rhombus;whiteSpace=wrap;html=1;" vertex="1" parent="77e6c97f196da883-2">
          <mxGeometry x="30" y="157" width="80" height="80" as="geometry" />
        </mxCell>
        <mxCell id="Wx2LwBdW0A8jemOkCZMF-21" value="同步F3的库存" style="rounded=0;whiteSpace=wrap;html=1;" vertex="1" parent="77e6c97f196da883-2">
          <mxGeometry x="10" y="277" width="120" height="60" as="geometry" />
        </mxCell>
        <mxCell id="77e6c97f196da883-40" style="edgeStyle=orthogonalEdgeStyle;rounded=1;html=1;labelBackgroundColor=none;startArrow=none;startFill=0;startSize=5;endArrow=classicThin;endFill=1;endSize=5;jettySize=auto;orthogonalLoop=1;strokeWidth=1;fontFamily=Verdana;fontSize=8" parent="77e6c97f196da883-1" edge="1">
          <mxGeometry relative="1" as="geometry">
            <mxPoint x="770" y="690" as="sourcePoint" />
            <mxPoint x="830" y="690" as="targetPoint" />
          </mxGeometry>
        </mxCell>
        <mxCell id="77e6c97f196da883-3" value="活动" style="swimlane;html=1;startSize=20;" parent="77e6c97f196da883-1" vertex="1">
          <mxGeometry x="160" y="20" width="160" height="730" as="geometry" />
        </mxCell>
        <mxCell id="77e6c97f196da883-9" value="上架" style="rounded=1;whiteSpace=wrap;html=1;shadow=0;labelBackgroundColor=none;strokeWidth=1;fontFamily=Verdana;fontSize=8;align=center;" parent="77e6c97f196da883-3" vertex="1">
          <mxGeometry x="30" y="65" width="100" height="60" as="geometry" />
        </mxCell>
        <mxCell id="77e6c97f196da883-4" value="物流" style="swimlane;html=1;startSize=20;" parent="77e6c97f196da883-1" vertex="1">
          <mxGeometry x="320" y="20" width="160" height="730" as="geometry" />
        </mxCell>
        <mxCell id="77e6c97f196da883-12" value="装箱" style="rounded=1;whiteSpace=wrap;html=1;shadow=0;labelBackgroundColor=none;strokeWidth=1;fontFamily=Verdana;fontSize=8;align=center;" parent="77e6c97f196da883-4" vertex="1">
          <mxGeometry x="30" y="67" width="100" height="60" as="geometry" />
        </mxCell>
        <mxCell id="77e6c97f196da883-29" style="edgeStyle=orthogonalEdgeStyle;rounded=1;html=1;labelBackgroundColor=none;startArrow=none;startFill=0;startSize=5;endArrow=classicThin;endFill=1;endSize=5;jettySize=auto;orthogonalLoop=1;strokeWidth=1;fontFamily=Verdana;fontSize=8" parent="77e6c97f196da883-4" source="77e6c97f196da883-12" edge="1">
          <mxGeometry relative="1" as="geometry">
            <mxPoint x="80" y="240" as="targetPoint" />
          </mxGeometry>
        </mxCell>
        <mxCell id="77e6c97f196da883-5" value="订单" style="swimlane;html=1;startSize=17;" parent="77e6c97f196da883-1" vertex="1">
          <mxGeometry x="480" y="20" width="160" height="730" as="geometry">
            <mxRectangle x="480" y="20" width="40" height="730" as="alternateBounds" />
          </mxGeometry>
        </mxCell>
        <mxCell id="77e6c97f196da883-15" value="下单" style="rounded=1;whiteSpace=wrap;html=1;shadow=0;labelBackgroundColor=none;strokeWidth=1;fontFamily=Verdana;fontSize=8;align=center;" parent="77e6c97f196da883-5" vertex="1">
          <mxGeometry x="40" y="67" width="100" height="60" as="geometry" />
        </mxCell>
        <mxCell id="77e6c97f196da883-6" value="F3后台管理" style="swimlane;html=1;startSize=20;" parent="77e6c97f196da883-1" vertex="1">
          <mxGeometry x="640" y="20" width="160" height="730" as="geometry" />
        </mxCell>
        <mxCell id="Wx2LwBdW0A8jemOkCZMF-1" value="采购入库" style="rounded=1;whiteSpace=wrap;html=1;shadow=0;labelBackgroundColor=none;strokeWidth=1;fontFamily=Verdana;fontSize=8;align=center;" vertex="1" parent="77e6c97f196da883-6">
          <mxGeometry x="30" y="67" width="100" height="60" as="geometry" />
        </mxCell>
        <mxCell id="Wx2LwBdW0A8jemOkCZMF-2" value="盘点" style="rounded=1;whiteSpace=wrap;html=1;shadow=0;labelBackgroundColor=none;strokeWidth=1;fontFamily=Verdana;fontSize=8;align=center;" vertex="1" parent="77e6c97f196da883-6">
          <mxGeometry x="30" y="177" width="100" height="60" as="geometry" />
        </mxCell>
        <mxCell id="Wx2LwBdW0A8jemOkCZMF-17" value="报损" style="rounded=1;whiteSpace=wrap;html=1;shadow=0;labelBackgroundColor=none;strokeWidth=1;fontFamily=Verdana;fontSize=8;align=center;" vertex="1" parent="77e6c97f196da883-6">
          <mxGeometry x="30" y="297" width="100" height="60" as="geometry" />
        </mxCell>
        <mxCell id="Wx2LwBdW0A8jemOkCZMF-18" value="退库" style="rounded=1;whiteSpace=wrap;html=1;shadow=0;labelBackgroundColor=none;strokeWidth=1;fontFamily=Verdana;fontSize=8;align=center;" vertex="1" parent="77e6c97f196da883-6">
          <mxGeometry x="30" y="407" width="100" height="60" as="geometry" />
        </mxCell>
      </root>
    </mxGraphModel>
  </diagram>
</mxfile>
